<svg width="20" height="19" viewBox="0 0 20 19" fill="none" xmlns="http://www.w3.org/2000/svg">
<path d="M14.5 0.5C17.3039 0.5 19.5 2.69614 19.5 5.5C19.5 7.22573 18.7287 8.83095 17.2695 10.6162C16.1707 11.9605 14.7115 13.3723 12.96 14.9854L11.1133 16.6699L10.001 17.6748L8.88672 16.6602L8.88574 16.6592L7.04004 14.9775C5.28872 13.3675 3.82914 11.9575 2.73047 10.6143C1.27153 8.83047 0.5 7.22563 0.5 5.5C0.5 2.69614 2.69614 0.5 5.5 0.5C7.08854 0.5 8.62093 1.24195 9.61914 2.41406L10 2.86133L10.3809 2.41406C11.3791 1.24195 12.9115 0.5 14.5 0.5Z" stroke="white"/>
</svg>
